<svg xmlns="http://www.w3.org/2000/svg" viewBox="0 0 1360 760" width="1360" height="760"><defs><marker id="arrow" markerWidth="10" markerHeight="10" refX="9" refY="5" orient="auto" markerUnits="strokeWidth"><path d="M0,0 L10,5 L0,10 z" fill="#334155"></path></marker><style>.title { font: 700 22px Helvetica, Arial, sans-serif; fill: #0f172a; }
.box { fill: #f8fafc; stroke: #334155; stroke-width: 1.6; }
.line { stroke: #334155; stroke-width: 2.2; fill: none; marker-end: url(#arrow); }
.loop { stroke: #64748b; stroke-width: 2; fill: none; stroke-dasharray: 7 6; marker-end: url(#arrow); }
.label { font: 600 14px Helvetica, Arial, sans-serif; fill: #0f172a; text-anchor: middle; }
.sub { font: 12px Helvetica, Arial, sans-serif; fill: #475569; text-anchor: middle; }
.note { font: 12px Helvetica, Arial, sans-serif; fill: #64748b; text-anchor: middle; }
.tag { font: 12px Helvetica, Arial, sans-serif; fill: #64748b; text-anchor: middle; }</style></defs><text class="title" x="48" y="42">Workflow Overview</text><line x1="48" y1="58" x2="1312" y2="58" stroke="#cbd5e1" stroke-width="2"></line><rect class="box" x="48" y="96" width="190" height="64" rx="6" ry="6"></rect><text class="label" x="143" y="122">Target Image</text><text class="sub" x="143" y="144">I_ORIG</text><rect class="box" x="292" y="96" width="190" height="64" rx="6" ry="6"></rect><text class="label" x="387" y="122">Current Image</text><text class="sub" x="387" y="144">I_CUR</text><rect class="box" x="536" y="96" width="190" height="64" rx="6" ry="6"></rect><text class="label" x="631" y="122">Soft Background</text><text class="sub" x="631" y="144">B_SOFT</text><rect class="box" x="780" y="96" width="190" height="64" rx="6" ry="6"></rect><text class="label" x="875" y="122">Working Support</text><text class="sub" x="875" y="144">I_WORK</text><rect class="box" x="1024" y="96" width="250" height="64" rx="6" ry="6"></rect><text class="label" x="1149" y="122">Row Model</text><text class="sub" x="1149" y="144">R_BG, R_TR, R_RES, R_VIS, R_CONF</text><rect class="box" x="48" y="252" width="190" height="64" rx="6" ry="6"></rect><text class="label" x="143" y="278">Star Mask</text><text class="sub" x="143" y="300">optional mask support</text><rect class="box" x="292" y="252" width="190" height="64" rx="6" ry="6"></rect><text class="label" x="387" y="278">Stars Only</text><text class="sub" x="387" y="300">optional analysis support</text><rect class="box" x="536" y="252" width="190" height="64" rx="6" ry="6"></rect><text class="label" x="631" y="278">Mask Builder</text><text class="sub" x="631" y="300">M_EXCL and M_PROT</text><rect class="box" x="780" y="252" width="190" height="64" rx="6" ry="6"></rect><text class="label" x="875" y="278">Star Analysis</text><text class="sub" x="875" y="300">catalog or occupancy fallback</text><rect class="box" x="1024" y="252" width="250" height="64" rx="6" ry="6"></rect><text class="label" x="1149" y="278">Support Terms</text><text class="sub" x="1149" y="300">R_INF and M_PROT</text><rect class="box" x="430" y="462" width="250" height="72" rx="6" ry="6"></rect><text class="label" x="555" y="488">Correction Model</text><text class="sub" x="555" y="510">global scale, visibility, confidence</text><rect class="box" x="734" y="462" width="250" height="72" rx="6" ry="6"></rect><text class="label" x="859" y="488">Apply and Update</text><text class="sub" x="859" y="510">I_CUR ← I_CUR − C[y] · W_PROT</text><rect class="box" x="430" y="626" width="250" height="64" rx="6" ry="6"></rect><text class="label" x="555" y="652">Corrected Output</text><text class="sub" x="555" y="674">TARGET_RBC</text><rect class="box" x="734" y="626" width="250" height="64" rx="6" ry="6"></rect><text class="label" x="859" y="652">Diagnostics</text><text class="sub" x="859" y="674">profiles, support images, difference</text><path class="line" d="M238 128 H292"></path><path class="line" d="M482 128 H536"></path><path class="line" d="M726 128 H780"></path><path class="line" d="M970 128 H1024"></path><path class="line" d="M238 276 H536"></path><path class="line" d="M482 292 H536"></path><path class="line" d="M726 284 H780"></path><path class="line" d="M970 284 H1024"></path><path class="line" d="M1149 160 V404 H555 V462"></path><path class="line" d="M1149 316 V404 H555 V462"></path><path class="line" d="M680 498 H734"></path><path class="line" d="M859 534 V626"></path><path class="line" d="M680 658 H734"></path><path class="loop" d="M859 462 V196 H387 V160"></path><text class="note" x="598" y="214" text-anchor="middle">iterative update of I_CUR</text></svg>
